<?xml version="1.0" standalone="no"?>
<!DOCTYPE svg PUBLIC "-//W3C//DTD SVG 20010904//EN"
 "http://www.w3.org/TR/2001/REC-SVG-20010904/DTD/svg10.dtd">
<svg version="1.0" xmlns="http://www.w3.org/2000/svg"
 width="1587.000000pt" height="2245.000000pt" viewBox="0 0 1587.000000 2245.000000"
 preserveAspectRatio="xMidYMid meet">

<g transform="translate(0.000000,2245.000000) scale(0.100000,-0.100000)"
fill="#000000" stroke="none">
<path d="M5465 17583 c-84 -508 -295 -1043 -578 -1468 -479 -717 -1161 -1218
-2053 -1508 -227 -74 -544 -149 -756 -178 -47 -6 -92 -16 -100 -20 -18 -11
-18 -942 0 -1214 29 -439 74 -851 132 -1235 46 -295 136 -766 139 -722 1 9
251 12 1217 12 l1216 0 -51 41 c-300 236 -531 597 -625 974 -44 176 -62 408
-46 575 42 427 209 800 490 1093 286 300 613 473 1025 544 143 25 444 24 583
-1 56 -11 101 -21 99 -22 -2 -2 -44 -8 -94 -14 -484 -55 -865 -413 -950 -895
-22 -127 -13 -317 20 -447 50 -190 144 -351 291 -497 l84 -84 -73 -86 c-291
-342 -487 -688 -643 -1131 -28 -80 -60 -179 -71 -220 -51 -191 -94 -485 -105
-722 l-6 -118 1335 0 1335 0 2 1813 3 1813 27 41 c17 25 45 49 75 64 46 23 58
24 301 27 l252 4 0 1804 0 1804 1228 3 c675 1 119 3 -1235 5 l-2462 2 -6 -37z"/>
<path d="M11290 15696 c0 -2 8 -10 18 -17 15 -13 16 -12 3 4 -13 16 -21 21
-21 13z"/>
<path d="M11550 15436 c0 -2 8 -10 18 -17 15 -13 16 -12 3 4 -13 16 -21 21
-21 13z"/>
<path d="M11630 15366 c0 -2 8 -10 18 -17 15 -13 16 -12 3 4 -13 16 -21 21
-21 13z"/>
<path d="M13893 14220 c0 -41 2 -58 4 -37 2 20 2 54 0 75 -2 20 -4 3 -4 -38z"/>
<path d="M13893 13525 c0 -27 2 -38 4 -22 2 15 2 37 0 50 -2 12 -4 0 -4 -28z"/>
<path d="M8590 11890 l0 -1650 1470 0 c1428 0 1472 -1 1508 -19 45 -23 87 -66
101 -104 7 -19 11 -216 11 -585 l0 -557 -23 -40 c-12 -21 -42 -53 -65 -70
l-44 -30 -1479 -3 -1479 -2 0 -128 c-1 -139 -9 -192 -37 -231 -11 -14 -104
-95 -209 -179 -303 -245 -328 -263 -373 -269 l-41 -6 -2 -1593 c-2 -877 -3
-1594 -2 -1594 13 0 335 100 499 155 823 275 1592 683 2236 1186 913 713 1664
1667 2189 2779 321 681 555 1363 735 2140 19 83 35 153 35 156 0 2 -550 4
-1222 4 l-1223 0 -39 108 c-163 451 -386 817 -726 1191 -366 401 -874 722
-1420 895 -138 44 -345 96 -382 96 -17 0 -18 -85 -18 -1650z"/>
<path d="M4145 7180 c10 -11 20 -20 23 -20 3 0 -3 9 -13 20 -10 11 -20 20 -23
20 -3 0 3 -9 13 -20z"/>
<path d="M4200 7115 c13 -14 26 -25 28 -25 3 0 -5 11 -18 25 -13 14 -26 25
-28 25 -3 0 5 -11 18 -25z"/>
<path d="M4250 7057 c0 -2 15 -16 33 -33 l32 -29 -29 33 c-28 30 -36 37 -36
29z"/>
<path d="M4395 6900 c27 -27 51 -50 54 -50 3 0 -17 23 -44 50 -27 28 -51 50
-54 50 -3 0 17 -22 44 -50z"/>
<path d="M4645 6650 c38 -38 72 -70 74 -70 3 0 -26 32 -64 70 -38 39 -72 70
-74 70 -3 0 26 -31 64 -70z"/>
<path d="M4800 6506 c0 -2 8 -10 18 -17 15 -13 16 -12 3 4 -13 16 -21 21 -21
13z"/>
<path d="M4880 6436 c0 -2 8 -10 18 -17 15 -13 16 -12 3 4 -13 16 -21 21 -21
13z"/>
<path d="M6190 5526 c0 -3 9 -10 20 -16 11 -6 20 -8 20 -6 0 3 -9 10 -20 16
-11 6 -20 8 -20 6z"/>
</g>
</svg>
